<?xml version="1.0" encoding="UTF-8"?>
<svg width="210" height="60" viewBox="0 0 210 60" fill="none" xmlns="http://www.w3.org/2000/svg">
<path fill-rule="evenodd" clip-rule="evenodd" d="M46.1544 26.7091C47.4402 27.4743 49.1063 27.0494 49.8708 25.7606C50.6349 24.4738 50.2122 22.809 48.9232 22.044C38.1614 15.6558 21.1327 15.0552 10.8889 18.1646C9.45477 18.6003 8.6464 20.1145 9.0807 21.5484C9.515 22.9814 11.0303 23.7906 12.4633 23.3557C21.3874 20.6472 36.8065 21.1577 46.1544 26.7091ZM45.8483 34.9317C46.5017 33.87 46.1671 32.4776 45.1046 31.8231C36.1532 26.3223 23.0597 24.7744 12.5269 27.9705C11.3331 28.3341 10.659 29.5947 11.0193 30.7904C11.3823 31.9839 12.6451 32.658 13.8408 32.2966C23.061 29.4977 34.945 30.8857 42.7383 35.6762C43.8011 36.3296 45.1927 35.9959 45.8483 34.9317ZM42.2996 42.8283C42.8207 41.9763 42.5524 40.8629 41.7001 40.3427C34.0563 35.6715 24.5805 34.5847 13.5336 37.1103C12.5587 37.3322 11.9514 38.3016 12.1741 39.2744C12.3962 40.2468 13.3654 40.8563 14.3384 40.6333C24.433 38.3276 33.0045 39.2675 39.8146 43.4297C40.6658 43.9505 41.7788 43.6828 42.2996 42.8283ZM29 1C45.0167 1 58 13.9836 58 29.9997C58 46.017 45.0167 59 29 59C12.9841 59 0 46.017 0 29.9997C0 13.9836 12.9841 1 29 1ZM97.121 36.1683L113 59H100.123L89.8526 43.9392L85.5075 48.5855V59H75V1H85.5075V34.2457L98.9379 19.5858H112.684L97.121 36.1683ZM117.268 59V19.5598H127.811V59H117.268ZM122.5 0C126.147 0 129 2.96612 129 6.65367C129 10.1804 126.147 13.1468 122.5 13.1468C118.933 13.1468 116 10.1804 116 6.65367C116 2.96612 118.933 0 122.5 0ZM154.078 50.4606C159.412 50.4606 163.569 46.2919 163.569 39.1577C163.569 32.1031 159.412 28.1754 154.078 28.1754C148.745 28.1754 144.51 32.1833 144.51 39.2376C144.51 46.2919 148.588 50.4606 154.078 50.4606ZM173.686 51.9034C173.686 54.5491 173.843 57.4348 174 59.0382H164.039C163.882 58.2363 163.647 56.3122 163.647 54.4689C161.922 57.595 158 60 152.823 60C141.844 60 134 51.1817 134 39.2376C134 27.6944 141.608 18.636 152.51 18.636C159.176 18.636 162.314 21.4413 163.412 23.5258V1H173.686V51.9034ZM187.924 46.0974C188.159 49.161 190.429 51.9884 194.97 51.9884C198.414 51.9884 200.058 50.1819 200.058 48.1398C200.058 46.4115 198.884 44.998 195.909 44.3699L190.82 43.1915C183.384 41.5419 180.018 37.065 180.018 31.6453C180.018 24.7334 186.124 19 194.422 19C205.381 19 209.06 25.9901 209.53 30.1531L200.841 32.1166C200.527 29.839 198.884 26.9328 194.5 26.9328C191.76 26.9328 189.568 28.5823 189.568 30.7812C189.568 32.6665 190.977 33.8447 193.091 34.2375L198.571 35.4157C206.164 36.9865 210 41.6205 210 47.2756C210 53.5594 205.146 60 195.048 60C183.462 60 179.47 52.4598 179 48.0613L187.924 46.0974Z" fill="#FAE62D"/>
</svg>
